# xmcd CD database file
#
# Track frame offsets:
#	150
#	14605
#	38864
#	55904
#	68882
#	87946
#	101518
#	118321
#	137994
#	168054
#	178307
#
# Disc length: 2596 seconds
#
# Revision: 1
# Processed by: cddbd v1.5.2PL0 Copyright (c) Steve Scherf et al.
# Submitted via: CDex 1.51
#
DISCID=9b0a220b
DTITLE=Cisco Herzhaft - Good Hand
DYEAR=2014
DGENRE=Blues
TTITLE0=Dance The Boogie For Me
TTITLE1=You Won't Get Nobody
TTITLE2=The E-Dying Man
TTITLE3=The Earth To Moon Train's Rag
TTITLE4=Bentonia Mississippi
TTITLE5=The Number Of My Name
TTITLE6=I Got To Take My Things And Run
TTITLE7=On The Route To 66
TTITLE8=Hospital Blues
TTITLE9=CC Rider
TTITLE10=Motherless Children
EXTD=YEAR: 2014
EXTT0=
EXTT1=
EXTT2=
EXTT3=
EXTT4=
EXTT5=
EXTT6=
EXTT7=
EXTT8=
EXTT9=
EXTT10=
PLAYORDER=
